<?xml version="1.0" encoding="utf-8"?>
<!-- Generator: Adobe Illustrator 16.0.0, SVG Export Plug-In . SVG Version: 6.00 Build 0)  -->
<!DOCTYPE svg PUBLIC "-//W3C//DTD SVG 1.1//EN" "http://www.w3.org/Graphics/SVG/1.1/DTD/svg11.dtd">
<svg version="1.1" id="Layer_1" xmlns="http://www.w3.org/2000/svg" xmlns:xlink="http://www.w3.org/1999/xlink" x="0px" y="0px"
	 width="40px" height="40px" viewBox="0 0 40 40" enable-background="new 0 0 40 40" xml:space="preserve">
<path fill="#878787" d="M32.557,20.491c-0.846,0-1.52,0.681-1.52,1.52V35.39H8.963V22.011c0-0.839-0.674-1.52-1.52-1.52
	c-0.83,0-1.519,0.681-1.519,1.52v14.867v0.04c0,0.838,0.689,1.527,1.519,1.527H32.51h0.047c0.83,0,1.52-0.689,1.52-1.527V22.011
	C34.076,21.172,33.387,20.491,32.557,20.491L32.557,20.491z M25.413,32.522L25.413,32.522c0.517,0,0.924-0.407,0.924-0.908v-9.24
	c0-0.504-0.407-0.92-0.924-0.92H14.587c-0.517,0-0.924,0.416-0.924,0.92v9.24c0,0.501,0.407,0.908,0.924,0.908H25.413L25.413,32.522
	z M15.496,23.287L15.496,23.287h9.008v7.41h-9.008V23.287L15.496,23.287z M39.356,20.272L39.356,20.272L21.104,2.032l-0.031-0.027
	c-0.595-0.6-1.551-0.6-2.146,0L0.644,20.272c-0.58,0.595-0.58,1.563,0,2.158c0.596,0.591,1.566,0.591,2.162,0L20.008,5.232
	L37.194,22.43c0.596,0.591,1.566,0.591,2.162,0C39.936,21.835,39.936,20.867,39.356,20.272L39.356,20.272z"/>
</svg>
